<svg width="83" height="83" viewBox="0 0 83 83" fill="none" xmlns="http://www.w3.org/2000/svg">
<g clip-path="url(#clip0_130_442)">
<path d="M10.3708 67.2594C10.3708 70.0722 11.7497 72.6644 14.5073 75.036C17.265 77.4076 21.043 79.2828 25.8413 80.6616C30.6397 82.0404 35.8241 82.7299 41.3945 82.7299C46.965 82.7299 52.1494 82.0404 56.9478 80.6616C61.7461 79.2828 65.5241 77.4076 68.2817 75.036C71.0394 72.6644 72.4182 70.0722 72.4182 67.2594V58.49C72.4182 61.3028 71.0118 63.7847 68.199 65.9357C65.3862 68.0867 61.6633 69.6861 57.0305 70.734C52.3976 71.7819 47.1856 72.3335 41.3945 72.3886C35.6034 72.4438 30.3915 71.8922 25.7586 70.734C21.1257 69.5758 17.4029 67.9764 14.5901 65.9357C11.7773 63.895 10.3708 61.4131 10.3708 58.49V67.2594ZM10.3708 51.7062C10.3708 54.519 11.7497 57.1112 14.5073 59.4828C17.265 61.8544 21.043 63.7571 25.8413 65.1911C30.6397 66.6251 35.8241 67.3145 41.3945 67.2594C46.965 67.2042 52.1494 66.5148 56.9478 65.1911C61.7461 63.8675 65.5241 61.9647 68.2817 59.4828C71.0394 57.0009 72.4182 54.4087 72.4182 51.7062V43.0195C72.4182 45.7772 71.0118 48.2315 68.199 50.3825C65.3862 52.5335 61.6633 54.1605 57.0305 55.2635C52.3976 56.3666 47.1856 56.9181 41.3945 56.9181C35.6034 56.9181 30.3915 56.3666 25.7586 55.2635C21.1257 54.1605 17.4029 52.5335 14.5901 50.3825C11.7773 48.2315 10.3708 45.7772 10.3708 43.0195V51.7062ZM10.3708 36.2357C10.3708 39.0485 11.7497 41.6407 14.5073 44.0123C17.265 46.3839 21.043 48.2591 25.8413 49.6379C30.6397 51.0168 35.8241 51.7062 41.3945 51.7062C46.965 51.7062 52.1494 51.0168 56.9478 49.6379C61.7461 48.2591 65.5241 46.3839 68.2817 44.0123C71.0394 41.6407 72.4182 39.0485 72.4182 36.2357V27.4663C72.4182 30.2791 71.0118 32.761 68.199 34.912C65.3862 37.063 61.6633 38.6624 57.0305 39.7103C52.3976 40.7583 47.1856 41.3098 41.3945 41.3649C35.6034 41.4201 30.3915 40.8686 25.7586 39.7103C21.1257 38.5521 17.4029 36.9527 14.5901 34.912C11.7773 32.8713 10.3708 30.3894 10.3708 27.4663V36.2357ZM10.3708 20.6825C10.3708 23.4953 11.7497 26.0875 14.5073 28.4591C17.265 30.8307 21.043 32.7335 25.8413 34.1674C30.6397 35.6014 35.8241 36.2908 41.3945 36.2357C46.965 36.1805 52.1494 35.4911 56.9478 34.1674C61.7461 32.8438 65.5241 30.941 68.2817 28.4591C71.0394 25.9772 72.4182 23.385 72.4182 20.6825V15.5532C72.4182 12.7404 71.0394 10.1482 68.2817 7.77663C65.5241 5.40504 61.7461 3.52983 56.9478 2.151C52.1494 0.77217 46.965 0.0551782 41.3945 2.4949e-05C35.8241 -0.0551283 30.6397 0.661864 25.8413 2.151C21.043 3.64014 17.265 5.51535 14.5073 7.77663C11.7497 10.0379 10.3708 12.6301 10.3708 15.5532V20.6825Z" fill="#EDEDED"/>
</g>
<defs>
<clipPath id="clip0_130_442">
<rect width="82.7298" height="82.7298" fill="white" transform="translate(0.029541)"/>
</clipPath>
</defs>
</svg>
