<svg width="79" height="80" viewBox="0 0 79 80" fill="none" xmlns="http://www.w3.org/2000/svg">
<g clip-path="url(#clip0_130_418)">
<path d="M30.1387 34.2756C23.9804 34.2756 18.9705 39.2928 18.9705 45.4593C18.9705 49.5711 22.2114 52.91 22.5805 53.2769C23.1885 53.8813 23.99 55.2195 24.25 56.0593L25.142 59.7164C25.3597 60.6103 26.1606 61.2396 27.0808 61.2396H33.1957C34.1156 61.2396 34.9166 60.6108 35.1345 59.717L36.0273 56.0585C36.2862 55.2211 37.0875 53.8823 37.6963 53.2769C38.0657 52.91 41.3058 49.5709 41.3058 45.4593C41.3063 39.2925 36.2966 34.2756 30.1387 34.2756ZM34.8823 50.4466C33.7822 51.5406 32.6233 53.4861 32.1863 54.9715C32.1776 55.0013 32.1696 55.0314 32.1621 55.0614L31.6283 57.2483H28.6487L28.1155 55.062C28.1083 55.0311 28.0998 55.0005 28.0907 54.9699C27.6519 53.4829 26.493 51.5382 25.3988 50.4506C24.721 49.7681 22.962 47.541 22.962 45.4595C22.962 41.4938 26.1814 38.2675 30.1387 38.2675C34.0954 38.2675 37.3147 41.4938 37.3147 45.4595C37.3147 47.5407 35.5558 49.7681 34.8823 50.4466Z" fill="#EDEDED"/>
<path d="M56.4829 0.457275H3.79389C2.69141 0.457275 1.7981 1.35059 1.7981 2.45307V77.0958C1.7981 78.1982 2.69141 79.0916 3.79389 79.0916H56.4829C57.5853 79.0916 58.4786 78.1982 58.4786 77.0958V2.45307C58.4786 1.35059 57.5853 0.457275 56.4829 0.457275ZM54.4871 75.1H5.78968V4.44886H54.4871V75.1Z" fill="#EDEDED"/>
<path d="M12.5754 23.8081H47.7014C48.8038 23.8081 49.6972 22.9147 49.6972 21.8123V11.2346C49.6972 10.1321 48.8038 9.23877 47.7014 9.23877H12.5754C11.4729 9.23877 10.5796 10.1321 10.5796 11.2346V21.8123C10.5796 22.9147 11.4732 23.8081 12.5754 23.8081ZM14.5712 13.2304H45.7056V19.8165H14.5712V13.2304Z" fill="#EDEDED"/>
<path d="M32.3338 63.0586H27.9431C26.8406 63.0586 25.9473 63.9519 25.9473 65.0544C25.9473 66.1569 26.8406 67.0502 27.9431 67.0502H32.3338C33.4363 67.0502 34.3296 66.1569 34.3296 65.0544C34.3296 63.9519 33.4363 63.0586 32.3338 63.0586Z" fill="#EDEDED"/>
<path d="M30.2085 68.2476H30.0683C28.9658 68.2476 28.0725 69.1409 28.0725 70.2434C28.0725 71.3458 28.9658 72.2391 30.0683 72.2391H30.2085C31.311 72.2391 32.2043 71.3458 32.2043 70.2434C32.2043 69.1409 31.3108 68.2476 30.2085 68.2476Z" fill="#EDEDED"/>
<path d="M30.2085 31.9242C31.311 31.9242 32.2043 31.0309 32.2043 29.9284C32.2043 28.8259 31.311 27.9326 30.2085 27.9326H30.0683C28.9658 27.9326 28.0725 28.8259 28.0725 29.9284C28.0725 31.0309 28.9658 31.9242 30.0683 31.9242H30.2085Z" fill="#EDEDED"/>
<path d="M20.2296 33.3879C20.2296 32.2854 19.3363 31.3921 18.2338 31.3921H18.0936C16.9911 31.3921 16.0978 32.2854 16.0978 33.3879C16.0978 34.4904 16.9914 35.3837 18.0936 35.3837H18.2338C19.336 35.3837 20.2296 34.4904 20.2296 33.3879Z" fill="#EDEDED"/>
<path d="M42.1834 31.3921H42.0432C40.9407 31.3921 40.0474 32.2854 40.0474 33.3879C40.0474 34.4904 40.9407 35.3837 42.0432 35.3837H42.1834C43.2859 35.3837 44.1792 34.4904 44.1792 33.3879C44.1792 32.2854 43.2856 31.3921 42.1834 31.3921Z" fill="#EDEDED"/>
<path d="M46.7072 41.1047H46.567C45.4645 41.1047 44.5712 41.9981 44.5712 43.1005C44.5712 44.203 45.4645 45.0963 46.567 45.0963H46.7072C47.8097 45.0963 48.703 44.203 48.703 43.1005C48.703 41.9981 47.8094 41.1047 46.7072 41.1047Z" fill="#EDEDED"/>
<path d="M14.5083 41.1047H14.3681C13.2659 41.1047 12.3723 41.9981 12.3723 43.1005C12.3723 44.203 13.2659 45.0963 14.3681 45.0963H14.5083C15.6108 45.0963 16.5041 44.203 16.5041 43.1005C16.5041 41.9981 15.6106 41.1047 14.5083 41.1047Z" fill="#EDEDED"/>
<path d="M63.2688 60.4487C63.2688 60.7584 63.3409 61.0642 63.4796 61.3414L68.2923 70.9673C68.6306 71.6432 69.3214 72.0706 70.0774 72.0706C70.8334 72.0706 71.5245 71.6435 71.8624 70.9673L76.6755 61.3414C76.8141 61.0642 76.8862 60.7584 76.8862 60.4487V13.1638C76.8862 12.0613 75.9929 11.168 74.8904 11.168H65.2646C64.1621 11.168 63.2688 12.0613 63.2688 13.1638V60.4487ZM67.2604 58.4529V21.5767H72.8946V58.4529H67.2604ZM72.8946 15.1596V17.5851H67.2604V15.1596H72.8946ZM70.0774 65.6119L68.4938 62.4447H71.661L70.0774 65.6119Z" fill="#EDEDED"/>
</g>
<defs>
<clipPath id="clip0_130_418">
<rect width="78.6343" height="78.6343" fill="white" transform="translate(0.0249023 0.457275)"/>
</clipPath>
</defs>
</svg>
